<svg xmlns="http://www.w3.org/2000/svg" width="85.316" height="110" viewBox="0 0 85.316 110"><defs><style>.a{fill:#fff;}</style></defs><g transform="translate(-118.343 -76)"><path class="a" d="M118.35,130.953V77.774c0-1.772,0-1.774,1.765-1.774h81.823c1.724,0,1.721,0,1.721,1.706q0,53.287,0,106.573c0,1.719,0,1.72-1.7,1.72H120.238c-1.891,0-1.894,0-1.894-1.867q0-26.59,0-53.18Zm81.5.162q0-24.861,0-49.722c0-1.609-.01-1.611-1.579-1.611q-36.913,0-73.827.007c-2.661,0-2.3-.319-2.3,2.3q-.015,49.4-.005,98.8c0,1.33.005,1.334,1.428,1.333l74.908-.005c1.377,0,1.376,0,1.376-1.374Z" transform="translate(0)"/><path class="a" d="M161.047,84.866c10.774,0,21.547.012,32.32-.019,1.04,0,1.464.227,1.454,1.37-.052,6.233-.026,12.467-.031,18.7,0,1.406-.036,1.446-1.465,1.446q-32.32,0-64.64,0c-1.446,0-1.476-.035-1.477-1.431q0-9.3,0-18.593c0-1.47.007-1.474,1.516-1.474Q144.887,84.864,161.047,84.866Zm.068,3.784c-9.583,0-19.167.011-28.749-.017-1,0-1.4.253-1.383,1.327q.084,5.619,0,11.24c-.013,1.02.365,1.308,1.328,1.29,2.557-.049,5.116-.022,7.673-.022q24.859,0,49.716.02c.965,0,1.332-.273,1.317-1.292-.055-3.674-.022-7.349-.028-11.024,0-1.522-.01-1.524-1.559-1.524Q175.274,88.646,161.115,88.65Z" transform="translate(0 0)"/><path class="a" d="M194.794,161.168c0,4.863-.03,9.727.023,14.59.012,1.1-.329,1.4-1.416,1.4q-12.915-.06-25.83,0c-1.082,0-1.438-.308-1.434-1.4q.051-14.752.009-29.5c0-.938.32-1.255,1.257-1.252q13.023.037,26.046,0c1.032,0,1.377.331,1.369,1.365-.04,4.935-.018,9.87-.018,14.806Zm-24.682,4.221a14.612,14.612,0,0,1,3.607-2.684c.884-.425,1.03-.789.507-1.688a7.091,7.091,0,0,1,1.371-8.776,7.213,7.213,0,0,1,11.573,8c-.249.633-1.007,1.2-.8,1.807.217.646,1.157.75,1.747,1.153a34.183,34.183,0,0,1,2.878,2.286c0-5.473,0-10.691.006-15.908,0-.841-.562-.771-1.11-.771-6.264,0-12.529.018-18.793-.012-.9,0-1.175.278-1.168,1.171.034,4.752.01,9.5.016,14.257A1.922,1.922,0,0,0,170.112,165.389Zm10.37,7.974v-.009q4.537,0,9.073,0c1.223,0,1.263-.065.931-1.206a10.49,10.49,0,0,0-20.049.1c-.246.855-.071,1.146.864,1.132C174.361,173.333,177.422,173.362,180.482,173.362Zm3.382-15.8a3.32,3.32,0,0,0-3.434-3.372,3.355,3.355,0,0,0-3.362,3.46,3.428,3.428,0,0,0,3.517,3.335A3.347,3.347,0,0,0,183.864,157.561Z" transform="translate(-0.001 -0.001)"/><path class="a" d="M127.2,125.648q0-5.511,0-11.022c0-1.413.024-1.433,1.464-1.433,6.231,0,12.462.021,18.693-.014,1.007-.006,1.4.269,1.391,1.33q-.053,11.182,0,22.367c0,1.047-.361,1.353-1.379,1.347q-9.4-.054-18.8,0c-1.136.008-1.4-.409-1.384-1.45C127.233,133.067,127.205,129.357,127.2,125.648Zm3.808.018c0,2.522.03,5.045-.016,7.567-.016.88.25,1.2,1.161,1.191q5.782-.06,11.567,0c.946.011,1.243-.282,1.235-1.233q-.063-7.512-.008-15.026c.006-.882-.251-1.2-1.159-1.195q-5.838.057-11.675,0c-.847-.007-1.135.276-1.121,1.125C131.039,120.62,131.011,123.143,131.012,125.666Z" transform="translate(0 -0.001)"/><path class="a" d="M174.185,116.994h-18.8c-1.572,0-1.588-.006-1.585-1.538.005-2.545-.26-2.257,2.235-2.258q18.637-.009,37.273-.007c1.475,0,1.483,0,1.482,1.518,0,2.465.272,2.28-2.24,2.278q-9.183,0-18.367,0Z" transform="translate(-0.001 -0.001)"/><path class="a" d="M174.19,127.592q-9.453,0-18.906,0c-1.485,0-1.494-.008-1.483-1.516.019-2.548-.274-2.272,2.229-2.274q18.636-.012,37.27,0c1.49,0,1.511.016,1.495,1.506-.028,2.514.271,2.283-2.24,2.288q-9.183.018-18.366,0Z" transform="translate(-0.001 -0.001)"/><path class="a" d="M174.182,138.209H155.49c-1.681,0-1.687,0-1.69-1.635,0-2.295-.241-2.169,2.134-2.168q18.583.006,37.166,0c1.689,0,1.694,0,1.692,1.642,0,2.393.205,2.151-2.136,2.153q-9.238.007-18.475,0Z" transform="translate(-0.001 -0.001)"/><path class="a" d="M144.248,145.014c5.151,0,10.3.027,15.454-.021,1.1-.01,1.439.339,1.4,1.43-.1,2.723.32,2.372-2.349,2.375-10.051.014-20.1-.01-30.152.028-1.1,0-1.444-.328-1.408-1.413.088-2.66-.287-2.391,2.361-2.4Q136.9,145,144.248,145.014Z" transform="translate(0 -0.001)"/><path class="a" d="M144.2,159.255c5.188,0,10.376.027,15.564-.022,1.058-.01,1.369.333,1.336,1.358-.092,2.776.36,2.448-2.5,2.451q-14.916.016-29.829,0c-1.558,0-1.564-.006-1.553-1.567.017-2.507-.223-2.213,2.18-2.219C134.325,159.246,139.261,159.255,144.2,159.255Z" transform="translate(0 -0.002)"/><path class="a" d="M144.065,177.136c-5.186,0-10.373-.02-15.559.017-.969.007-1.342-.271-1.316-1.28.071-2.791-.3-2.521,2.46-2.523q14.586-.01,29.172,0c.432,0,.865.017,1.3.006.671-.018.973.263.964.966-.042,3.4.4,2.789-2.647,2.808C153.645,177.159,148.855,177.136,144.065,177.136Z" transform="translate(0 -0.002)"/></g></svg>