<svg xmlns="http://www.w3.org/2000/svg" width="296.413" height="41.251" viewBox="0 0 296.413 41.251"><g transform="translate(-27.8 -20.7)"><g transform="translate(27.8 20.7)"><path d="M48.426,61.951V52.444a11.159,11.159,0,1,0-11.2-11.119H27.8A20.626,20.626,0,1,1,48.426,61.951Z" transform="translate(-27.8 -20.7)"/></g><g transform="translate(78.8 20.7)"><path d="M100.527,41.326H91.1A20.665,20.665,0,0,1,111.726,20.7v9.507A11.158,11.158,0,0,0,100.527,41.326Z" transform="translate(-91.1 -20.7)"/></g><g transform="translate(91.449 41.326)"><path d="M106.8,46.3" transform="translate(-106.8 -46.3)"/></g><g transform="translate(108.852 20.7)"><path d="M149.026,61.951a20.626,20.626,0,1,1,20.626-20.626A20.665,20.665,0,0,1,149.026,61.951Zm0-31.825a11.2,11.2,0,1,0,11.2,11.2A11.227,11.227,0,0,0,149.026,30.127Z" transform="translate(-128.4 -20.7)"/></g><g transform="translate(166.781 22.473)"><path d="M210.182,23.864a4.651,4.651,0,0,1,2.014,1.692,4.946,4.946,0,0,1,0,5.156,4.651,4.651,0,0,1-2.014,1.692,7.414,7.414,0,0,1-3.062.564h-2.659v3.706H201.4V23.3h5.8A8.537,8.537,0,0,1,210.182,23.864Zm-1.128,5.962a2.337,2.337,0,0,0,0-3.384,3.241,3.241,0,0,0-2.095-.564h-2.5v4.673h2.5A3.8,3.8,0,0,0,209.054,29.826Z" transform="translate(-200.514 -22.978)"/><path d="M226.96,36.674l-2.578-3.706h-2.82v3.706H218.5V23.3h5.8a7.168,7.168,0,0,1,3.062.564,4.651,4.651,0,0,1,2.014,1.692,4.946,4.946,0,0,1,0,5.156,4.022,4.022,0,0,1-2.014,1.611l2.981,4.27H226.96Zm-.806-10.232a3.241,3.241,0,0,0-2.095-.564h-2.5v4.673h2.5a3.1,3.1,0,0,0,2.095-.645,2.081,2.081,0,0,0,.725-1.692A2.14,2.14,0,0,0,226.154,26.442Z" transform="translate(-203.836 -22.978)"/><path d="M238.345,35.872a5.945,5.945,0,0,1-2.578-2.5,6.983,6.983,0,0,1,0-7.09,7.647,7.647,0,0,1,2.578-2.5,8.2,8.2,0,0,1,3.787-.886,7.871,7.871,0,0,1,3.706.886,5.945,5.945,0,0,1,2.578,2.5,6.983,6.983,0,0,1,0,7.09,7.647,7.647,0,0,1-2.578,2.5,8.114,8.114,0,0,1-3.706.886A6.609,6.609,0,0,1,238.345,35.872Zm5.882-2.256a3.991,3.991,0,0,0,1.531-1.531,4.84,4.84,0,0,0,.564-2.175,4.2,4.2,0,0,0-2.095-3.706,4.84,4.84,0,0,0-2.175-.564,4.2,4.2,0,0,0-3.706,2.095,4.84,4.84,0,0,0-.564,2.175,4.2,4.2,0,0,0,2.095,3.706,4.84,4.84,0,0,0,2.175.564A3.991,3.991,0,0,0,244.227,33.616Z" transform="translate(-207.004 -22.9)"/><path d="M264.945,35.972a6.412,6.412,0,0,1-2.578-2.5,6.983,6.983,0,0,1,0-7.09,7.646,7.646,0,0,1,2.578-2.5,8.095,8.095,0,0,1,6.848-.242,5.656,5.656,0,0,1,2.336,1.773l-2.014,1.853a4.2,4.2,0,0,0-3.384-1.531,4.2,4.2,0,0,0-3.706,2.095,4.84,4.84,0,0,0-.564,2.175,4.2,4.2,0,0,0,2.095,3.706,4.84,4.84,0,0,0,2.175.564,4.394,4.394,0,0,0,3.384-1.611l2.014,1.853a6.225,6.225,0,0,1-2.336,1.773,8.109,8.109,0,0,1-3.142.645A9.343,9.343,0,0,1,264.945,35.972Z" transform="translate(-212.172 -22.919)"/><path d="M282.045,35.872a5.945,5.945,0,0,1-2.578-2.5,6.983,6.983,0,0,1,0-7.09,7.647,7.647,0,0,1,2.578-2.5,8.2,8.2,0,0,1,3.787-.886,7.871,7.871,0,0,1,3.706.886,6.411,6.411,0,0,1,2.578,2.5,6.982,6.982,0,0,1,0,7.09,7.646,7.646,0,0,1-2.578,2.5,8.114,8.114,0,0,1-3.706.886A6.457,6.457,0,0,1,282.045,35.872Zm5.882-2.256a3.991,3.991,0,0,0,1.531-1.531,4.84,4.84,0,0,0,.564-2.175,4.2,4.2,0,0,0-2.095-3.706,4.84,4.84,0,0,0-2.175-.564,4.2,4.2,0,0,0-3.706,2.095,4.84,4.84,0,0,0-.564,2.175,4.2,4.2,0,0,0,2.095,3.706,4.84,4.84,0,0,0,2.175.564A3.991,3.991,0,0,0,287.927,33.616Z" transform="translate(-215.495 -22.9)"/><path d="M307.555,33.774h-6.2l-1.209,2.9H297L302.962,23.3h3.062l5.962,13.374h-3.223Zm-.967-2.336-2.095-5.076L302.4,31.437Z" transform="translate(-219.09 -22.978)"/><path d="M319.645,35.972a6.412,6.412,0,0,1-2.578-2.5,6.983,6.983,0,0,1,0-7.09,7.646,7.646,0,0,1,2.578-2.5,8.095,8.095,0,0,1,6.848-.242,5.656,5.656,0,0,1,2.336,1.773l-2.014,1.853a4.2,4.2,0,0,0-3.384-1.531,4.2,4.2,0,0,0-3.706,2.095,4.84,4.84,0,0,0-.564,2.175,4.2,4.2,0,0,0,2.095,3.706,4.84,4.84,0,0,0,2.175.564,4.394,4.394,0,0,0,3.384-1.611l2.014,1.853a6.225,6.225,0,0,1-2.336,1.773,8.109,8.109,0,0,1-3.142.645A9,9,0,0,1,319.645,35.972Z" transform="translate(-222.801 -22.919)"/><path d="M346.766,23.3V36.674H343.7V31.2h-6.043v5.479H334.6V23.3h3.062v5.237H343.7V23.3Z" transform="translate(-226.396 -22.978)"/><path d="M353.6,23.3h3.062V36.674H353.6Z" transform="translate(-230.088 -22.978)"/><path d="M373.646,23.3V36.674h-2.5l-6.687-8.137v8.137H361.4V23.3h2.578l6.607,8.137V23.3Z" transform="translate(-231.603 -22.978)"/><path d="M389.329,29.668h2.82v5.4a8.142,8.142,0,0,1-2.5,1.289,9.013,9.013,0,0,1-2.9.4,7.871,7.871,0,0,1-3.706-.886,5.945,5.945,0,0,1-2.578-2.5,6.983,6.983,0,0,1,0-7.09,7.217,7.217,0,0,1,2.659-2.5,8.454,8.454,0,0,1,3.787-.886,8.208,8.208,0,0,1,3.223.564,6.546,6.546,0,0,1,2.417,1.692l-2.014,1.853a4.763,4.763,0,0,0-3.464-1.531,4.087,4.087,0,0,0-2.256.564,3.513,3.513,0,0,0-1.531,1.531,4.087,4.087,0,0,0-.564,2.256A3.991,3.991,0,0,0,383.287,32a4.634,4.634,0,0,0,1.531,1.531,5.117,5.117,0,0,0,4.673,0V29.668Z" transform="translate(-235.12 -22.9)"/><path d="M202.878,64.368a4.56,4.56,0,0,1-1.853-1.853,5.237,5.237,0,0,1,0-5.318,5.814,5.814,0,0,1,1.853-1.853,5.008,5.008,0,0,1,2.659-.645,5.29,5.29,0,0,1,2.014.322,4.293,4.293,0,0,1,1.611,1.047l-.483.483a4.251,4.251,0,0,0-3.142-1.209,4.564,4.564,0,0,0-2.337.564,3.884,3.884,0,0,0-1.611,1.611,4.794,4.794,0,0,0,0,4.512,5.128,5.128,0,0,0,1.611,1.611,4.564,4.564,0,0,0,2.337.564A4.38,4.38,0,0,0,208.679,63l.483.483a3.742,3.742,0,0,1-1.611,1.047,5.61,5.61,0,0,1-2.014.4A3.833,3.833,0,0,1,202.878,64.368Z" transform="translate(-200.3 -29.079)"/><path d="M222.718,54.9V65.052h-.725V60.218h-6.768v4.834H214.5V54.9h.725v4.673h6.768V54.9Z" transform="translate(-203.059 -29.118)"/><path d="M236.109,65.052l-2.417-3.384a4.257,4.257,0,0,1-.967.081h-2.9v3.3H229.1V54.9h3.626a4.692,4.692,0,0,1,2.981.886,3.183,3.183,0,0,1,1.128,2.5,3.341,3.341,0,0,1-.645,2.014,2.745,2.745,0,0,1-1.773,1.128L237,64.971h-.886Zm-3.384-4.028a3.844,3.844,0,0,0,2.5-.725,2.732,2.732,0,0,0,0-4.028,3.7,3.7,0,0,0-2.5-.725h-2.9v5.479h2.9Z" transform="translate(-205.896 -29.118)"/><path d="M242,54.9h.725V65.052H242Z" transform="translate(-208.403 -29.118)"/><path d="M247.611,64.652A4.522,4.522,0,0,1,246,63.685l.322-.564a3.187,3.187,0,0,0,1.45.886,4.875,4.875,0,0,0,1.934.322,3.342,3.342,0,0,0,2.175-.564,1.723,1.723,0,0,0,.725-1.45,1.747,1.747,0,0,0-.4-1.128,2.9,2.9,0,0,0-.967-.645,11.679,11.679,0,0,0-1.531-.483,11.64,11.64,0,0,1-1.773-.564,2.357,2.357,0,0,1-1.611-2.256,2.716,2.716,0,0,1,.4-1.37,2.489,2.489,0,0,1,1.209-.967,4.975,4.975,0,0,1,2.014-.4,6.133,6.133,0,0,1,1.692.242,4.342,4.342,0,0,1,1.37.645l-.242.564a7.142,7.142,0,0,0-1.37-.645,4.562,4.562,0,0,0-1.45-.242,3.1,3.1,0,0,0-2.095.564,1.83,1.83,0,0,0-.725,1.45,1.747,1.747,0,0,0,.4,1.128,2.054,2.054,0,0,0,.967.645,10.012,10.012,0,0,0,1.611.483,11.641,11.641,0,0,1,1.773.564,2.672,2.672,0,0,1,1.128.806,1.97,1.97,0,0,1,.483,1.45,2.716,2.716,0,0,1-.4,1.37,2.489,2.489,0,0,1-1.209.967,4.975,4.975,0,0,1-2.014.4A4.088,4.088,0,0,1,247.611,64.652Z" transform="translate(-209.18 -29.04)"/><path d="M259.626,55.545H256V54.9h8.057v.645h-3.626v9.507h-.725V55.545Z" transform="translate(-211.123 -29.118)"/><path d="M269.478,64.368a4.56,4.56,0,0,1-1.853-1.853,5.237,5.237,0,0,1,0-5.318,5.814,5.814,0,0,1,1.853-1.853,5.008,5.008,0,0,1,2.659-.645,5.639,5.639,0,0,1,2.659.645,4.56,4.56,0,0,1,1.853,1.853,5.237,5.237,0,0,1,0,5.318,5.814,5.814,0,0,1-1.853,1.853,5.008,5.008,0,0,1-2.659.645A4.367,4.367,0,0,1,269.478,64.368Zm5-.564a3.884,3.884,0,0,0,1.611-1.611,4.794,4.794,0,0,0,0-4.512,5.128,5.128,0,0,0-1.611-1.611,5.122,5.122,0,0,0-4.673,0,3.884,3.884,0,0,0-1.611,1.611,4.794,4.794,0,0,0,0,4.512A5.128,5.128,0,0,0,269.8,63.8a5.122,5.122,0,0,0,4.673,0Z" transform="translate(-213.241 -29.079)"/><path d="M289.807,55.786a3.183,3.183,0,0,1,1.128,2.5,2.855,2.855,0,0,1-1.128,2.5,4.259,4.259,0,0,1-2.981.886h-2.9v3.3H283.2V54.9h3.626A4.259,4.259,0,0,1,289.807,55.786Zm-.564,4.512a2.732,2.732,0,0,0,0-4.028,3.7,3.7,0,0,0-2.5-.725h-2.9v5.479h2.9A3.7,3.7,0,0,0,289.243,60.3Z" transform="translate(-216.408 -29.118)"/><path d="M304.118,54.9V65.052h-.725V60.218h-6.768v4.834H295.9V54.9h.725v4.673h6.768V54.9Z" transform="translate(-218.876 -29.118)"/><path d="M328.425,54.9,324.96,65.052h-.806l-3.142-9.1-3.142,9.1h-.806L313.6,54.9h.806l3.062,9.1,3.142-9.1h.725l3.142,9.185,3.142-9.185Z" transform="translate(-222.315 -29.118)"/><path d="M340.076,62.132h-5.882l-1.289,2.82H332.1L336.773,54.8h.725l4.673,10.152h-.806Zm-.242-.645-2.659-5.882-2.659,5.882Z" transform="translate(-225.91 -29.099)"/><path d="M355.218,54.9V65.052h-.725V60.218h-6.768v4.834H347V54.9h.725v4.673h6.768V54.9Z" transform="translate(-228.805 -29.118)"/><path d="M361.6,54.9h.725v9.507h5.882v.645H361.6V54.9Z" transform="translate(-231.642 -29.118)"/><path d="M379.109,64.327v.645H372.1V54.9h6.768v.645h-6.043v4.028h5.4v.645h-5.4v4.19h6.284Z" transform="translate(-233.683 -29.118)"/><path d="M392.4,54.9V65.052h-.645l-6.929-8.782v8.782H384.1V54.9h.645l6.929,8.782V54.9Z" transform="translate(-236.014 -29.118)"/></g></g></svg>